<?xml version="1.0" encoding="UTF-8" standalone="no"?><!DOCTYPE svg PUBLIC "-//W3C//DTD SVG 1.1//EN"
        "http://www.w3.org/Graphics/SVG/1.1/DTD/svg11.dtd">
<svg width="10055px" height="2108px" viewBox="0 0 10055 2108" version="1.1" xmlns="http://www.w3.org/2000/svg"
     xmlns:xlink="http://www.w3.org/1999/xlink" xml:space="preserve" xmlns:serif="http://www.serif.com/"
     style="fill-rule:evenodd;clip-rule:evenodd;stroke-linejoin:round;stroke-miterlimit:2;"><g id="on_white"></g>
    <g><path d="M675.308,968.867c-155.044,21.432 -299.863,-96.627 -322.891,-263.227c-20.654,-149.429 63.64,-287.866 193.111,-330.234l6.377,46.117c2.81,20.339 16.783,37.133 35.339,42.522c6.161,1.766 12.428,2.18 18.473,1.347c12.185,-1.684 23.47,-8.475 31.088,-19.329l119.694,-170.475c15.597,-22.216 11.202,-54.033 -9.844,-71.187l-161.443,-131.613c-15.447,-12.593 -36.145,-14.145 -52.586,-3.865c-16.398,10.219 -25.292,30.172 -22.482,50.517l7.31,52.863c-232.939,58.008 -388.491,298.599 -352.461,559.247c38.37,277.614 279.789,474.419 538.152,438.704l655.991,-90.67l-27.837,-201.393l-655.991,90.676Z" style="fill:#0a5078;fill-rule:nonzero;"/>
        <path d="M1422.84,1271.13l-163.729,-96.169c-15.619,-9.209 -34.743,-7.835 -48.457,3.538c-13.687,11.318 -19.307,30.338 -14.205,48.148l12.637,44.074l-838.827,240.436c-23.149,6.636 -36.278,31.773 -29.305,56.104l25.269,88.152c6.973,24.331 31.425,38.691 54.574,32.055l838.827,-240.431l12.632,44.074c5.102,17.81 19.947,30.961 37.554,33.313c5.841,0.756 11.61,0.293 17.021,-1.253c10.903,-3.131 20.355,-10.7 25.954,-21.416l87.92,-168.3c11.467,-21.89 3.462,-49.837 -17.865,-62.325Z"
              style="fill:#0a5078;fill-rule:nonzero;"/>
        <g><g><g><g><path d="M941.511,1566.31l-0,378.863c-0,29.879 24.248,54.127 54.127,54.127c29.874,-0 54.122,-24.248 54.122,-54.127l-0,-108.244c-0,-29.879 24.247,-54.121 54.121,-54.121c29.879,-0 54.127,24.242 54.127,54.121l0,216.492c0,29.88 24.248,54.122 54.122,54.122c29.874,0 54.122,-24.242 54.122,-54.122l-0,-216.492c-0,-29.879 24.247,-54.121 54.127,-54.121c29.873,-0 54.121,24.242 54.121,54.121l0,108.244c0,29.879 24.248,54.127 54.122,54.127c29.879,-0 54.127,-24.248 54.127,-54.127l0,-378.863l-541.238,0Z" style="fill:#fab400;fill-rule:nonzero;"/></g></g></g>
            <g><g><g><path d="M1482.75,1566.31l-541.238,0l-0,-925.726c-0,-101.265 35.505,-199.388 100.348,-277.167l128.704,-154.415c21.647,-25.976 61.536,-25.976 83.134,0l128.704,154.415c64.843,77.828 100.348,175.902 100.348,277.167l0,925.726Z" style="fill:#00a0c8;fill-rule:nonzero;"/></g></g></g>
            <g><g><g><path d="M1212.13,1295.69l-0,270.613l108.249,0l-0,-270.613c-0,-29.88 -24.248,-54.127 -54.127,-54.127c-29.874,-0 -54.122,24.247 -54.122,54.127Z" style="fill:#0082aa;fill-rule:nonzero;"/></g></g></g>
            <g><g><g><circle cx="1212.13" cy="862.705" r="216.492" style="fill:#0082aa;"/></g></g></g>
            <g><g><g><path d="M1428.62,1674.56l-432.984,0c-29.879,0 -54.127,-24.248 -54.127,-54.122l-0,-54.127l541.238,0l0,54.127c0,29.874 -24.248,54.122 -54.127,54.122Z" style="fill:#0a5078;fill-rule:nonzero;"/></g></g></g>
            <g><g><g><path d="M1212.13,1241.57c-29.874,-0 -54.122,24.247 -54.122,54.127l0,432.984c0,29.879 24.248,54.127 54.122,54.127c29.874,-0 54.122,-24.248 54.122,-54.127l-0,-432.984c-0,-29.88 -24.248,-54.127 -54.122,-54.127Z" style="fill:#c80a50;fill-rule:nonzero;"/></g></g></g>
            <g><g><g><circle cx="1212.13" cy="808.584" r="216.492" style="fill:#fab400;"/></g></g></g>
            <g><g><g><circle cx="1212.13" cy="808.584" r="108.249" style="fill:#0a5078;"/></g></g></g>
            <g><g><g><rect x="1266.25" y="1566.31" width="54.122" height="108.249" style="fill:#00325a;"/></g></g></g>
            <g><g><g><path d="M779.14,1782.81l54.128,-0c59.802,-0 108.243,-48.441 108.243,-108.249l-0,-432.989c-119.556,-0 -216.492,96.936 -216.492,216.497l-0,270.614c-0,29.879 24.248,54.127 54.121,54.127Z" style="fill:#c80a50;fill-rule:nonzero;"/></g></g></g>
            <g><g><g><path d="M1645.12,1782.81l-54.127,-0c-59.802,-0 -108.243,-48.441 -108.243,-108.249l0,-432.989c119.556,-0 216.492,96.936 216.492,216.497l0,270.614c0,29.879 -24.248,54.127 -54.122,54.127Z" style="fill:#c80a50;fill-rule:nonzero;"/></g></g></g></g>
        <g><g><g><circle cx="938.176" cy="166.875" r="166.875" style="fill:#fab400;"/></g></g></g>
        <g><g><g><circle cx="166.848" cy="1655.96" r="166.848" style="fill:#c80a50;"/></g></g></g></g>
    <g><text x="2239.63px" y="1472.44px" style="font-family:'ArialRoundedMTBold', 'Arial Rounded MT Bold', sans-serif;font-size:1526.19px;fill:#0a5078;">Star</text>
        <text x="5391.87px" y="1472.44px"
              style="font-family:'ArialRoundedMTBold', 'Arial Rounded MT Bold', sans-serif;font-size:1526.19px;fill:#0a5078;">tuptify</text></g></svg>
