<?xml version="1.0" encoding="UTF-8" standalone="no"?><!DOCTYPE svg PUBLIC "-//W3C//DTD SVG 1.1//EN" "http://www.w3.org/Graphics/SVG/1.1/DTD/svg11.dtd"><svg width="100%" height="100%" viewBox="0 0 7652 1577" version="1.1" xmlns="http://www.w3.org/2000/svg" xmlns:xlink="http://www.w3.org/1999/xlink" xml:space="preserve" xmlns:serif="http://www.serif.com/" style="fill-rule:evenodd;clip-rule:evenodd;stroke-linejoin:round;stroke-miterlimit:2;"><g><path d="M505.174,724.775c-115.983,16.033 -224.317,-72.283 -241.543,-196.91c-15.45,-111.783 47.606,-215.343 144.459,-247.037l4.771,34.498c2.102,15.215 12.555,27.779 26.436,31.81c4.609,1.321 9.296,1.631 13.819,1.007c9.115,-1.259 17.556,-6.339 23.256,-14.459l89.538,-127.526c11.668,-16.619 8.38,-40.421 -7.363,-53.253l-120.77,-98.455c-11.556,-9.421 -27.039,-10.581 -39.338,-2.891c-12.267,7.645 -18.92,22.571 -16.818,37.79l5.468,39.544c-174.253,43.394 -290.616,223.372 -263.664,418.354c28.704,207.673 209.301,354.896 402.573,328.179l490.724,-67.827l-20.824,-150.655l-490.724,67.831Z" style="fill:#0a5078;fill-rule:nonzero;"/><path d="M1064.38,950.885l-122.48,-71.941c-11.684,-6.888 -25.99,-5.86 -36.249,2.648c-10.238,8.466 -14.443,22.694 -10.626,36.018l9.453,32.969l-627.497,179.862c-17.317,4.965 -27.138,23.769 -21.922,41.97l18.903,65.943c5.216,18.201 23.508,28.943 40.825,23.979l627.497,-179.858l9.45,32.97c3.816,13.324 14.921,23.161 28.092,24.921c4.37,0.566 8.685,0.219 12.733,-0.938c8.157,-2.341 15.227,-8.004 19.415,-16.02l65.77,-125.899c8.578,-16.376 2.59,-37.282 -13.364,-46.624Z" style="fill:#0a5078;fill-rule:nonzero;"/><g><g><g><g><path d="M704.311,1171.7l0,283.414c0,22.351 18.139,40.49 40.491,40.49c22.347,0 40.486,-18.139 40.486,-40.49l0,-80.973c0,-22.352 18.139,-40.487 40.487,-40.487c22.351,0 40.49,18.135 40.49,40.487l0,161.95c0,22.351 18.139,40.486 40.487,40.486c22.347,0 40.486,-18.135 40.486,-40.486l0,-161.95c0,-22.352 18.139,-40.487 40.491,-40.487c22.347,0 40.486,18.135 40.486,40.487l0,80.973c0,22.351 18.139,40.49 40.487,40.49c22.351,0 40.49,-18.139 40.49,-40.49l0,-283.414l-404.881,0Z" style="fill:#fab400;fill-rule:nonzero;"/></g></g></g><g><g><g><path d="M1109.19,1171.7l-404.881,0l0,-692.503c0,-75.753 26.56,-149.156 75.067,-207.339l96.279,-115.512c16.194,-19.432 46.033,-19.432 62.19,-0l96.278,115.512c48.507,58.221 75.067,131.586 75.067,207.339l0,692.503Z" style="fill:#00a0c8;fill-rule:nonzero;"/></g></g></g><g><g><g><path d="M906.752,969.264l-0,202.436l80.977,0l-0,-202.436c-0,-22.352 -18.139,-40.491 -40.491,-40.491c-22.347,0 -40.486,18.139 -40.486,40.491Z" style="fill:#0082aa;fill-rule:nonzero;"/></g></g></g><g><g><g><circle cx="906.752" cy="645.359" r="161.95" style="fill:#0082aa;"/></g></g></g><g><g><g><path d="M1068.7,1252.68l-323.9,0c-22.352,0 -40.491,-18.139 -40.491,-40.486l0,-40.491l404.881,0l0,40.491c0,22.347 -18.139,40.486 -40.49,40.486Z" style="fill:#0a5078;fill-rule:nonzero;"/></g></g></g><g><g><g><path d="M906.752,928.773c-22.348,0 -40.487,18.139 -40.487,40.491l0,323.9c0,22.351 18.139,40.49 40.487,40.49c22.347,0 40.486,-18.139 40.486,-40.49l0,-323.9c0,-22.352 -18.139,-40.491 -40.486,-40.491Z" style="fill:#c80a50;fill-rule:nonzero;"/></g></g></g><g><g><g><circle cx="906.752" cy="604.873" r="161.95" style="fill:#fab400;"/></g></g></g><g><g><g><circle cx="906.752" cy="604.873" r="80.977" style="fill:#0a5078;"/></g></g></g><g><g><g><rect x="947.238" y="1171.7" width="40.486" height="80.977" style="fill:#00325a;"/></g></g></g><g><g><g><path d="M582.848,1333.65l40.49,0c44.736,0 80.973,-36.236 80.973,-80.977l0,-323.904c-89.435,0 -161.95,72.515 -161.95,161.954l0,202.437c0,22.351 18.139,40.49 40.487,40.49Z" style="fill:#c80a50;fill-rule:nonzero;"/></g></g></g><g><g><g><path d="M1230.66,1333.65l-40.491,0c-44.736,0 -80.973,-36.236 -80.973,-80.977l0,-323.904c89.436,0 161.951,72.515 161.951,161.954l-0,202.437c-0,22.351 -18.139,40.49 -40.487,40.49Z" style="fill:#c80a50;fill-rule:nonzero;"/></g></g></g></g><g><g><g><circle cx="701.817" cy="124.834" r="124.834" style="fill:#fab400;"/></g></g></g><g><g><g><circle cx="124.813" cy="1238.76" r="124.813" style="fill:#c80a50;"/></g></g></g></g><g><text x="1198.3px" y="1171.73px" style="font-family:'ArialRoundedMTBold', 'Arial Rounded MT Bold', sans-serif;font-size:1260.24px;fill:#0a5078;">Star</text><text x="3801.23px" y="1171.73px" style="font-family:'ArialRoundedMTBold', 'Arial Rounded MT Bold', sans-serif;font-size:1260.24px;fill:#0a5078;">tuptify</text></g></svg>