<?xml version="1.0" encoding="UTF-8" standalone="no"?>
<!DOCTYPE svg PUBLIC "-//W3C//DTD SVG 1.1//EN" "http://www.w3.org/Graphics/SVG/1.1/DTD/svg11.dtd">
<svg width="512px" height="512px" viewBox="0 0 99 123" version="1.1" xmlns="http://www.w3.org/2000/svg" xmlns:xlink="http://www.w3.org/1999/xlink" xml:space="preserve" xmlns:serif="http://www.serif.com/" style="fill-rule:evenodd;clip-rule:evenodd;stroke-linejoin:round;stroke-miterlimit:2;">
    <g transform="matrix(0.392133,0,0,0.392133,-54.0774,-72.5409)">
        <g transform="matrix(0.86573,-0.119665,0.128581,0.930232,101.673,58.8108)">
            <path d="M112,304C85.528,304 64,282.472 64,256C64,232.256 81.328,212.488 104,208.672L104,216C104,219.232 105.952,222.152 108.936,223.392C109.928,223.8 110.968,224 112,224C114.08,224 116.128,223.184 117.656,221.656L141.656,197.656C144.784,194.528 144.784,189.472 141.656,186.344L117.656,162.344C115.36,160.048 111.928,159.36 108.936,160.608C105.952,161.848 104,164.768 104,168L104,176.4C63.632,180.424 32,214.584 32,256C32,300.112 67.888,336 112,336L224,336L224,304L112,304Z" style="fill:rgb(10,80,120);fill-rule:nonzero;"/>
        </g>
        <g transform="matrix(0.774917,-0.222118,0.233433,0.814393,60.7947,65.422)">
            <path d="M237.656,442.344L213.656,418.344C211.368,416.048 207.928,415.36 204.936,416.608C201.952,417.848 200,420.768 200,424L200,432L40,432C35.584,432 32,435.584 32,440L32,456C32,460.416 35.584,464 40,464L200,464L200,472C200,475.232 201.952,478.152 204.936,479.392C205.928,479.8 206.968,480 208,480C210.08,480 212.128,479.184 213.656,477.656L237.656,453.656C240.784,450.536 240.784,445.464 237.656,442.344Z" style="fill:rgb(10,80,120);fill-rule:nonzero;"/>
        </g>
        <g transform="matrix(1,0,0,1,-90.9291,176.507)">
            <g>
                <g>
                    <g>
                        <path d="M368,240L368,296C368,300.416 371.584,304 376,304C380.416,304 384,300.416 384,296L384,280C384,275.584 387.584,272 392,272C396.416,272 400,275.584 400,280L400,312C400,316.416 403.584,320 408,320C412.416,320 416,316.416 416,312L416,280C416,275.584 419.584,272 424,272C428.416,272 432,275.584 432,280L432,296C432,300.416 435.584,304 440,304C444.416,304 448,300.416 448,296L448,240L368,240Z" style="fill:rgb(250,180,0);fill-rule:nonzero;"/>
                    </g>
                </g>
            </g>
            <g>
                <g>
                    <g>
                        <path d="M448,240L368,240L368,103.168C368,88.2 373.248,73.696 382.832,62.2L401.856,39.376C405.056,35.536 410.952,35.536 414.144,39.376L433.168,62.2C442.752,73.704 448,88.2 448,103.168L448,240Z" style="fill:rgb(0,160,200);fill-rule:nonzero;"/>
                    </g>
                </g>
            </g>
            <g>
                <g>
                    <g>
                        <path d="M408,200L408,240L424,240L424,200C424,195.584 420.416,192 416,192C411.584,192 408,195.584 408,200Z" style="fill:rgb(0,130,170);fill-rule:nonzero;"/>
                    </g>
                </g>
            </g>
            <g>
                <g>
                    <g>
                        <circle cx="408" cy="136" r="32" style="fill:rgb(0,130,170);"/>
                    </g>
                </g>
            </g>
            <g>
                <g>
                    <g>
                        <path d="M440,256L376,256C371.584,256 368,252.416 368,248L368,240L448,240L448,248C448,252.416 444.416,256 440,256Z" style="fill:rgb(10,80,120);fill-rule:nonzero;"/>
                    </g>
                </g>
            </g>
            <g>
                <g>
                    <g>
                        <path d="M408,192C403.584,192 400,195.584 400,200L400,264C400,268.416 403.584,272 408,272C412.416,272 416,268.416 416,264L416,200C416,195.584 412.416,192 408,192Z" style="fill:rgb(200,10,80);fill-rule:nonzero;"/>
                    </g>
                </g>
            </g>
            <g>
                <g>
                    <g>
                        <circle cx="408" cy="128" r="32" style="fill:rgb(250,180,0);"/>
                    </g>
                </g>
            </g>
            <g>
                <g>
                    <g>
                        <circle cx="408" cy="128" r="16" style="fill:rgb(10,80,120);"/>
                    </g>
                </g>
            </g>
            <g>
                <g>
                    <g>
                        <rect x="416" y="240" width="8" height="16" style="fill:rgb(0,50,90);fill-rule:nonzero;"/>
                    </g>
                </g>
            </g>
            <g>
                <g>
                    <g>
                        <path d="M344,272L352,272C360.84,272 368,264.84 368,256L368,192C350.328,192 336,206.328 336,224L336,264C336,268.416 339.584,272 344,272Z" style="fill:rgb(200,10,80);fill-rule:nonzero;"/>
                    </g>
                </g>
            </g>
            <g>
                <g>
                    <g>
                        <path d="M472,272L464,272C455.16,272 448,264.84 448,256L448,192C465.672,192 480,206.328 480,224L480,264C480,268.416 476.416,272 472,272Z" style="fill:rgb(200,10,80);fill-rule:nonzero;"/>
                    </g>
                </g>
            </g>
        </g>
        <g transform="matrix(0.77082,0,0,0.77082,103.914,-37.0056)">
            <g>
                <g>
                    <circle cx="224" cy="320" r="32" style="fill:rgb(250,180,0);"/>
                </g>
            </g>
        </g>
        <g transform="matrix(0.77068,0,0,0.77068,26.9278,281.787)">
            <g>
                <g>
                    <circle cx="176" cy="192" r="32" style="fill:rgb(200,10,80);"/>
                </g>
            </g>
        </g>
    </g>
</svg>
