<?xml version="1.0" encoding="UTF-8" standalone="no"?><!DOCTYPE svg PUBLIC "-//W3C//DTD SVG 1.1//EN" "http://www.w3.org/Graphics/SVG/1.1/DTD/svg11.dtd"><svg width="512px" height="512px" viewBox="0 0 1600 382" version="1.1" xmlns="http://www.w3.org/2000/svg" xmlns:xlink="http://www.w3.org/1999/xlink" xml:space="preserve" xmlns:serif="http://www.serif.com/" style="fill-rule:evenodd;clip-rule:evenodd;stroke-linejoin:round;stroke-miterlimit:2;"><g><text x="307.564px" y="270.552px" style="font-family:'ArialRoundedMTBold', 'Arial Rounded MT Bold', sans-serif;font-size:252.399px;fill:#0a5078;">Star<tspan x="828.876px 918.227px " y="270.552px 270.552px ">tu</tspan>ptify</text><g><path d="M122.318,175.49c-28.083,3.882 -54.314,-17.502 -58.485,-47.678c-3.741,-27.066 11.527,-52.141 34.978,-59.815l1.155,8.353c0.509,3.684 3.04,6.726 6.401,7.702c1.116,0.32 2.251,0.395 3.346,0.244c2.207,-0.305 4.251,-1.535 5.631,-3.501l21.68,-30.878c2.825,-4.024 2.029,-9.787 -1.783,-12.894l-29.242,-23.839c-2.798,-2.281 -6.547,-2.562 -9.525,-0.7c-2.97,1.851 -4.581,5.465 -4.072,9.15l1.324,9.575c-42.192,10.507 -70.367,54.085 -63.841,101.296c6.95,50.284 50.678,85.931 97.475,79.462l118.819,-16.423l-5.042,-36.478l-118.819,16.424Z" style="fill:#0a5078;fill-rule:nonzero;"/><path d="M257.718,230.238l-29.656,-17.419c-2.829,-1.668 -6.293,-1.419 -8.777,0.641c-2.479,2.05 -3.497,5.495 -2.573,8.721l2.289,7.983l-151.936,43.55c-4.193,1.202 -6.571,5.755 -5.308,10.162l4.577,15.967c1.263,4.407 5.692,7.008 9.885,5.806l151.936,-43.549l2.288,7.983c0.924,3.226 3.613,5.608 6.802,6.034c1.058,0.137 2.103,0.053 3.083,-0.227c1.975,-0.567 3.687,-1.938 4.701,-3.879l15.925,-30.484c2.077,-3.965 0.627,-9.027 -3.236,-11.289Z" style="fill:#0a5078;fill-rule:nonzero;"/><g><g><g><g><path d="M170.535,283.704l0,68.623c0,5.412 4.392,9.804 9.804,9.804c5.411,-0 9.803,-4.392 9.803,-9.804l-0,-19.606c-0,-5.412 4.392,-9.803 9.803,-9.803c5.412,-0 9.804,4.391 9.804,9.803l-0,39.213c-0,5.412 4.392,9.803 9.803,9.803c5.411,0 9.803,-4.391 9.803,-9.803l0,-39.213c0,-5.412 4.392,-9.803 9.804,-9.803c5.411,-0 9.803,4.391 9.803,9.803l-0,19.606c-0,5.412 4.392,9.804 9.803,9.804c5.412,-0 9.804,-4.392 9.804,-9.804l-0,-68.623l-98.034,0Z" style="fill:#fab400;fill-rule:nonzero;"/></g></g></g><g><g><g><path d="M268.569,283.704l-98.034,0l0,-167.676c0,-18.342 6.431,-36.115 18.176,-50.203l23.312,-27.969c3.921,-4.705 11.146,-4.705 15.058,0l23.312,27.969c11.745,14.097 18.176,31.861 18.176,50.203l-0,167.676Z" style="fill:#00a0c8;fill-rule:nonzero;"/></g></g></g><g><g><g><path d="M219.552,234.688l-0,49.016l19.607,0l-0,-49.016c-0,-5.412 -4.392,-9.804 -9.804,-9.804c-5.411,0 -9.803,4.392 -9.803,9.804Z" style="fill:#0082aa;fill-rule:nonzero;"/></g></g></g><g><g><g><circle cx="219.552" cy="156.261" r="39.213" style="fill:#0082aa;"/></g></g></g><g><g><g><path d="M258.765,303.311l-78.426,-0c-5.412,-0 -9.804,-4.392 -9.804,-9.803l0,-9.804l98.034,0l-0,9.804c-0,5.411 -4.392,9.803 -9.804,9.803Z" style="fill:#0a5078;fill-rule:nonzero;"/></g></g></g><g><g><g><path d="M219.552,224.884c-5.411,0 -9.803,4.392 -9.803,9.804l-0,78.426c-0,5.412 4.392,9.804 9.803,9.804c5.411,-0 9.803,-4.392 9.803,-9.804l0,-78.426c0,-5.412 -4.392,-9.804 -9.803,-9.804Z" style="fill:#c80a50;fill-rule:nonzero;"/></g></g></g><g><g><g><circle cx="219.552" cy="146.458" r="39.213" style="fill:#fab400;"/></g></g></g><g><g><g><circle cx="219.552" cy="146.458" r="19.607" style="fill:#0a5078;"/></g></g></g><g><g><g><rect x="229.355" y="283.704" width="9.803" height="19.607" style="fill:#00325a;fill-rule:nonzero;"/></g></g></g><g><g><g><path d="M141.125,322.918l9.804,-0c10.832,-0 19.606,-8.774 19.606,-19.607l0,-78.427c-21.655,0 -39.213,17.558 -39.213,39.214l-0,49.016c-0,5.412 4.392,9.804 9.803,9.804Z" style="fill:#c80a50;fill-rule:nonzero;"/></g></g></g><g><g><g><path d="M297.979,322.918l-9.804,-0c-10.832,-0 -19.606,-8.774 -19.606,-19.607l-0,-78.427c21.655,0 39.213,17.558 39.213,39.214l-0,49.016c-0,5.412 -4.392,9.804 -9.803,9.804Z" style="fill:#c80a50;fill-rule:nonzero;"/></g></g></g></g><g><g><g><circle cx="169.931" cy="30.226" r="30.226" style="fill:#fab400;"/></g></g></g><g><g><g><circle cx="30.221" cy="299.942" r="30.221" style="fill:#c80a50;"/></g></g></g></g></g></svg>
