<?xml version="1.0" encoding="UTF-8" standalone="no"?><!DOCTYPE svg PUBLIC "-//W3C//DTD SVG 1.1//EN" "http://www.w3.org/Graphics/SVG/1.1/DTD/svg11.dtd"><svg width="1305" height="1600" viewBox="0 0 1305 1600" version="1.1" xmlns="http://www.w3.org/2000/svg" xmlns:xlink="http://www.w3.org/1999/xlink" xml:space="preserve" xmlns:serif="http://www.serif.com/" style="fill-rule:evenodd;clip-rule:evenodd;stroke-linejoin:round;stroke-miterlimit:2;"><g><g><path d="M518.5,728.112c-117.7,16.269 -227.634,-73.35 -245.115,-199.819c-15.68,-113.437 48.31,-218.527 146.594,-250.691l4.839,35.009c2.134,15.441 12.742,28.191 26.828,32.282c4.68,1.339 9.436,1.655 14.025,1.021c9.248,-1.278 17.815,-6.435 23.599,-14.674l90.86,-129.409c11.843,-16.867 8.504,-41.021 -7.47,-54.043l-122.557,-99.909c-11.725,-9.558 -27.439,-10.736 -39.917,-2.935c-12.449,7.758 -19.2,22.908 -17.065,38.349l5.547,40.13c-176.827,44.034 -294.912,226.672 -267.562,424.536c29.13,210.744 212.394,360.142 408.525,333.032l497.975,-68.833l-21.132,-152.879l-497.974,68.833Z" style="fill:#0a5078;fill-rule:nonzero;"/></g><g><path d="M1080.37,951.251l-124.288,-73.003c-11.858,-6.994 -26.373,-5.947 -36.785,2.686c-10.389,8.59 -14.657,23.03 -10.782,36.548l9.591,33.46l-636.769,182.52c-17.575,5.038 -27.542,24.117 -22.248,42.587l19.182,66.92c5.294,18.471 23.855,29.372 41.429,24.335l636.769,-182.52l9.591,33.46c3.875,13.518 15.144,23.505 28.506,25.287c4.438,0.575 8.816,0.225 12.923,-0.952c8.278,-2.373 15.451,-8.122 19.7,-16.256l66.743,-127.759c8.708,-16.618 2.627,-37.832 -13.562,-47.313Z" style="fill:#0a5078;fill-rule:nonzero;"/></g><g><g><g><g><path d="M728.855,1189.02l-0,287.604c-0,22.679 18.407,41.086 41.086,41.086c22.68,0 41.086,-18.407 41.086,-41.086l0,-82.173c0,-22.679 18.407,-41.086 41.087,-41.086c22.679,0 41.086,18.407 41.086,41.086l-0,164.345c-0,22.68 18.407,41.087 41.086,41.087c22.68,-0 41.086,-18.407 41.086,-41.087l0,-164.345c0,-22.679 18.407,-41.086 41.087,-41.086c22.679,0 41.086,18.407 41.086,41.086l-0,82.173c-0,22.679 18.407,41.086 41.086,41.086c22.68,0 41.086,-18.407 41.086,-41.086l0,-287.604l-410.862,0Z" style="fill:#fab400;fill-rule:nonzero;"/></g></g></g><g><g><g><path d="M1139.72,1189.02l-410.862,0l-0,-702.739c-0,-76.873 26.952,-151.362 76.174,-210.403l97.703,-117.219c16.434,-19.722 46.715,-19.722 63.108,-0l97.704,117.219c49.221,59.082 76.173,133.53 76.173,210.403l0,702.739Z" style="fill:#00a0c8;fill-rule:nonzero;"/></g></g></g><g><g><g><path d="M934.286,983.587l0,205.431l82.173,0l-0,-205.431c-0,-22.68 -18.407,-41.087 -41.087,-41.087c-22.679,0 -41.086,18.407 -41.086,41.087Z" style="fill:#0082aa;fill-rule:nonzero;"/></g></g></g><g><g><g><circle cx="934.286" cy="654.897" r="164.345" style="fill:#0082aa;"/></g></g></g><g><g><g><path d="M1098.63,1271.19l-328.69,-0c-22.679,-0 -41.086,-18.407 -41.086,-41.087l-0,-41.086l410.862,0l0,41.086c0,22.68 -18.406,41.087 -41.086,41.087Z" style="fill:#0a5078;fill-rule:nonzero;"/></g></g></g><g><g><g><path d="M934.286,942.5c-22.679,0 -41.086,18.407 -41.086,41.087l-0,328.69c-0,22.679 18.407,41.086 41.086,41.086c22.68,0 41.086,-18.407 41.086,-41.086l0,-328.69c0,-22.68 -18.406,-41.087 -41.086,-41.087Z" style="fill:#c80a50;fill-rule:nonzero;"/></g></g></g><g><g><g><circle cx="934.286" cy="613.81" r="164.345" style="fill:#fab400;"/></g></g></g><g><g><g><circle cx="934.286" cy="613.81" r="82.173" style="fill:#0a5078;"/></g></g></g><g><g><g><rect x="975.372" y="1189.02" width="41.086" height="82.173" style="fill:#00325a;"/></g></g></g><g><g><g><path d="M605.596,1353.36l41.086,0c45.401,0 82.173,-36.772 82.173,-82.172l-0,-328.691c-90.76,0 -164.345,73.586 -164.345,164.345l-0,205.432c-0,22.679 18.407,41.086 41.086,41.086Z" style="fill:#c80a50;fill-rule:nonzero;"/></g></g></g><g><g><g><path d="M1262.98,1353.36l-41.086,0c-45.4,0 -82.173,-36.772 -82.173,-82.172l0,-328.691c90.76,0 164.345,73.586 164.345,164.345l0,205.432c0,22.679 -18.406,41.086 -41.086,41.086Z" style="fill:#c80a50;fill-rule:nonzero;"/></g></g></g></g><g><g><g><circle cx="712.198" cy="126.68" r="126.68" style="fill:#fab400;"/></g></g></g><g><g><g><circle cx="126.657" cy="1257.07" r="126.657" style="fill:#c80a50;"/></g></g></g></g></svg>
